# xmcd CD database file
#
# Track frame offsets:
#	150
#	22349
#	47266
#	65528
#	95043
#	120838
#	144772
#	166855
#	183926
#	205242
#
# Disc length: 3010 seconds
#
# Revision: 0
# Processed by: cddbd v1.5.2PL0 Copyright (c) Steve Scherf et al.
# Submitted via: CDex 1.70beta2
#
DISCID=7e0bc00a
DTITLE=Simin Tander - Wagma
DYEAR=2011
DGENRE=Jazz
TTITLE0=Shadowprint
TTITLE1=Becoming
TTITLE2=Windmills
TTITLE3=White
TTITLE4=Obsession
TTITLE5=Wagma
TTITLE6=Closed Eyes
TTITLE7=Purity
TTITLE8=Gallery
TTITLE9=River Man
EXTD=YEAR: 2011
EXTT0=
EXTT1=
EXTT2=
EXTT3=
EXTT4=
EXTT5=
EXTT6=
EXTT7=
EXTT8=
EXTT9=
PLAYORDER=
